<svg width="152" height="40" viewBox="0 0 152 40" fill="none" xmlns="http://www.w3.org/2000/svg">
<path d="M44.4094 25.1444C45.2107 25.5244 45.8255 26.0541 46.062 26.8971C46.5461 28.6193 46.062 30.3637 43.7222 30.9739C42.9254 31.1712 42.1088 31.2791 41.2879 31.2956C38.8897 31.376 36.4916 31.4009 34.0934 31.351C33.8931 31.351 33.6956 31.3261 33.498 31.3039C32.5549 31.1957 32.1459 30.7797 32.107 29.8313C32.0569 28.2727 31.9846 26.7141 31.8733 25.1583C31.7231 23.095 31.5478 21.0344 31.3864 18.9739C31.2751 17.529 31.1666 16.0841 31.0748 14.6392C31.0728 14.3295 31.0998 14.0204 31.1555 13.7157C31.1867 13.4608 31.2913 13.2203 31.4567 13.0235C31.6221 12.8266 31.8412 12.6817 32.0875 12.6064C32.8333 12.327 33.6177 12.1633 34.4133 12.1211C36.2134 11.9824 38.0134 11.9131 39.7939 12.3097C42.2394 12.8504 44.3148 13.9736 45.5056 16.2671C46.0747 17.3177 46.4087 18.4788 46.4846 19.6704C46.5605 20.8621 46.3764 22.0559 45.9451 23.1698C45.618 23.9522 45.0879 24.6336 44.4094 25.1444ZM38.8925 23.4804V24.257C38.8925 24.9558 38.8925 24.9558 39.588 24.8116C40.0157 24.7434 40.3989 24.509 40.6534 24.1596C40.9079 23.8102 41.013 23.3745 40.9457 22.948C40.8038 21.9052 40.2474 21.4171 39.2765 21.4587C39.0622 21.4587 38.9732 21.5281 38.9676 21.7555C38.9593 22.3212 38.9231 22.9008 38.8925 23.4804ZM38.8591 27.5128H38.8285C38.8285 27.7901 38.8285 28.0841 38.8285 28.367C38.8285 28.5334 38.8703 28.6138 39.0539 28.6166C39.4672 28.6396 39.8759 28.5201 40.2112 28.2782C40.3459 28.1875 40.4537 28.0625 40.5234 27.9161C40.5931 27.7698 40.6223 27.6075 40.6078 27.4461C40.5933 27.2848 40.5357 27.1302 40.441 26.9986C40.3464 26.8669 40.218 26.7629 40.0693 26.6975C39.7472 26.5674 39.4063 26.4897 39.0594 26.4673C38.9009 26.4423 38.8619 26.5311 38.8619 26.6614C38.8619 26.9443 38.8591 27.2299 38.8591 27.5128Z" fill="#F77833"/>
<path d="M106.595 25.1195C105.347 26.631 104.187 28.2126 103.12 29.8562C103.07 29.9275 103.025 30.0016 102.984 30.0781C102.819 30.4427 102.549 30.75 102.208 30.9609C101.867 31.1718 101.471 31.2767 101.07 31.2623C99.8149 31.315 98.5582 31.2983 97.3054 31.2124C96.8464 31.168 96.749 31.0488 96.6711 30.5939C96.5442 29.5739 96.4921 28.546 96.5153 27.5184C96.5153 24.5602 96.5227 21.6104 96.5376 18.6688C96.5376 17.0049 96.5709 15.3409 96.5876 13.6908C96.5876 13.6159 96.5876 13.541 96.5876 13.4661C96.6127 12.8144 96.6989 12.7063 97.3527 12.6924C98.3821 12.6702 99.4142 12.6758 100.446 12.6924C100.978 12.6924 101.072 12.795 101.07 13.3386C101.07 14.5033 101.036 15.6654 101.022 16.8301C101.022 17.5068 101.022 18.1863 101.022 18.899C101.518 18.1308 101.988 17.382 102.48 16.6499C103.316 15.4019 104.264 14.2323 105.312 13.1555C105.475 12.9854 105.671 12.851 105.888 12.7607C106.106 12.6705 106.34 12.6264 106.575 12.6314C107.731 12.6096 108.887 12.6476 110.039 12.7451C110.657 12.7978 110.807 12.9503 110.807 13.5549C110.807 16.3688 110.797 19.1819 110.776 21.994C110.76 24.6452 110.726 27.2965 110.704 29.9478C110.704 31.0238 110.565 31.1874 109.508 31.2318C108.737 31.2711 107.965 31.2646 107.196 31.2124C106.573 31.1652 106.361 30.9683 106.389 30.3443C106.445 28.6998 106.522 27.0552 106.592 25.4107C106.595 25.3441 106.595 25.2859 106.595 25.1195Z" fill="#F77833"/>
<path d="M57.1236 12.7451C58.7622 12.7451 60.0309 12.7451 61.2967 12.7451C61.6222 12.7451 61.8253 12.8449 61.8281 13.2054C61.8658 15.5344 61.64 17.8602 61.1548 20.1387C61.1548 20.1886 61.1382 20.2385 61.1242 20.2856C60.9045 21.1176 60.8961 21.0927 60.0337 21.04C59.0293 20.979 58.0222 20.9734 57.0151 20.9374C56.8231 20.9374 56.7369 20.9651 56.723 21.1925C56.6479 22.3018 56.6423 22.3018 57.7468 22.2769C58.6398 22.2436 59.5301 22.1659 60.4259 22.1354C61.0797 22.1132 61.3301 22.4294 61.1994 23.07C61.0936 23.5662 60.9598 24.056 60.7987 24.5371C60.7452 24.7285 60.6356 24.8996 60.4839 25.0286C60.3323 25.1575 60.1455 25.2384 59.9474 25.2609C58.9877 25.399 58.0163 25.439 57.0485 25.3802C56.6729 25.3802 56.5783 25.4745 56.5672 25.8433C56.5394 26.8888 56.5199 26.875 57.591 26.9055C58.5369 26.9332 59.4772 26.8084 60.4232 26.8167C60.8182 26.8167 60.9796 26.9582 60.9796 27.3381C61.0037 28.2917 60.9665 29.2458 60.8683 30.1946C60.8638 30.348 60.8058 30.4951 60.7042 30.6105C60.6027 30.7259 60.4639 30.8024 60.3119 30.8269C59.4638 31.0201 58.5972 31.1215 57.7273 31.1292C56.0998 31.2041 54.4695 31.1874 52.8419 31.168C52.1208 31.194 51.3991 31.1363 50.6914 30.9961C50.1127 30.8546 49.9402 30.6771 49.8568 30.1058C49.6147 28.489 49.4979 26.8583 49.3755 25.2276C49.1473 22.202 48.9776 19.1736 48.8357 16.1451C48.8051 15.5128 48.7801 14.8833 48.755 14.251C48.7356 13.7157 48.8357 13.5521 49.3449 13.3524C50.1092 13.0913 50.9078 12.9427 51.7152 12.9115C53.6404 12.7395 55.5684 12.734 57.1236 12.7451Z" fill="#F77833"/>
<path d="M63.5363 21.6751C63.5363 17.1408 66.3323 13.4717 70.6362 12.4345C72.5336 11.9741 74.456 12.0601 76.3729 12.3818C77.0907 12.5011 77.4579 12.8893 77.5943 13.6076C77.8548 15.0731 77.9989 16.5568 78.0255 18.0449C78.045 18.6383 78.07 19.2318 78.0756 19.8253C78.0811 20.4188 77.8669 20.6018 77.2632 20.477C76.4011 20.2823 75.5118 20.2363 74.6341 20.3411C72.8174 20.5852 71.6378 22.0661 71.7546 23.9714C71.8687 25.8295 73.2486 27.1801 75.0459 27.2078C75.5931 27.2295 76.1397 27.1524 76.6595 26.9804C76.7568 26.9372 76.8635 26.9191 76.9697 26.9277C77.0759 26.9363 77.1783 26.9713 77.2674 27.0295C77.3565 27.0877 77.4296 27.1673 77.4799 27.261C77.5302 27.3546 77.5561 27.4593 77.5553 27.5655C77.5854 28.3203 77.5529 29.0763 77.4579 29.8258C77.419 30.1641 77.1463 30.3194 76.882 30.4608C76.159 30.8264 75.3703 31.0451 74.5618 31.1042C72.1692 31.3427 69.8712 31.021 67.7595 29.8119C65.3669 28.4419 64.1233 26.3009 63.6893 23.6413C63.5796 22.9918 63.5284 22.3337 63.5363 21.6751Z" fill="#F77833"/>
<path d="M144.665 18.9129C144.665 19.2235 144.665 19.5341 144.665 19.8419C144.665 20.4243 144.451 20.6046 143.875 20.4742C143.293 20.3427 142.699 20.2758 142.103 20.2745C140.87 20.2745 139.735 20.5519 138.998 21.6362C138.603 22.1847 138.372 22.8338 138.333 23.5079C138.293 24.182 138.447 24.8534 138.775 25.4439C139.393 26.6697 140.464 27.2022 141.836 27.2022C142.321 27.208 142.803 27.1321 143.263 26.9776C143.365 26.9328 143.477 26.9156 143.588 26.9275C143.699 26.9394 143.804 26.9801 143.894 27.0455C143.984 27.1109 144.056 27.1987 144.101 27.3002C144.147 27.4017 144.165 27.5132 144.153 27.6237C144.17 28.3421 144.142 29.0609 144.07 29.7758C144.047 29.917 143.987 30.0499 143.898 30.1617C143.808 30.2734 143.691 30.3602 143.558 30.4137C142.81 30.8126 141.984 31.0472 141.137 31.1014C138.77 31.3372 136.494 31.0127 134.402 29.8313C132.098 28.5278 130.819 26.5033 130.346 23.938C129.964 21.9302 130.017 19.9251 130.799 18.0226C132.19 14.6947 134.694 12.7534 138.28 12.2459C139.824 12.0397 141.39 12.0809 142.921 12.3679C143.708 12.5093 144.086 12.9226 144.217 13.7019C144.399 14.7383 144.517 15.7849 144.57 16.8357C144.604 17.5262 144.57 18.2223 144.57 18.9129H144.665Z" fill="#F77833"/>
<path d="M17.9762 24.6257C17.87 26.6465 17.87 28.6715 17.9762 30.6924C18.013 31.3883 17.9762 31.4784 17.2698 31.5807C16.8845 31.638 16.4955 31.6667 16.1059 31.6667C14.4017 31.6667 12.7016 31.6667 11.0055 31.6667C10.7156 31.6667 10.4257 31.6667 10.1357 31.6421C9.58852 31.6421 9.43743 31.5111 9.29042 30.9708C9.12947 30.2818 9.03916 29.5781 9.0209 28.8707C8.80311 25.4321 8.59893 21.9948 8.40836 18.5589C8.2246 15.3455 8 12.1361 8 8.91442C8 8.39862 8.05717 8.31675 8.58395 8.22669C9.83173 8.0596 11.0904 7.98844 12.349 8.01382C13.9008 7.98926 15.4526 8.01382 17.0002 8.01382C17.5148 8.01382 17.5556 8.04657 17.5393 8.57874C17.4699 10.6255 17.5393 12.6723 17.6332 14.7191C17.6781 15.8203 17.7598 16.9215 17.9109 18.0391C18.3192 17.0238 18.7766 15.9923 19.1931 14.9893C20.0711 12.8279 20.8919 10.646 21.5739 8.41499C21.5798 8.35268 21.5984 8.29224 21.6285 8.2374C21.6586 8.18256 21.6996 8.13448 21.749 8.09613C21.7983 8.05777 21.855 8.02996 21.9155 8.01439C21.976 7.99883 22.039 7.99585 22.1007 8.00563C24.3921 8.04222 26.6779 8.24332 28.9407 8.60739C29.7982 8.76295 29.8309 8.84892 29.5614 9.67173C28.4425 13.0981 26.956 16.3443 24.7305 19.2016C24.5502 19.3771 24.4386 19.6116 24.4161 19.8625C24.3936 20.1134 24.4617 20.3641 24.608 20.5689C27.1153 23.8438 29.0999 26.2304 30.1984 29.8041C30.3536 30.3117 30.2801 30.4713 29.7901 30.6637C28.9159 30.9617 28.0048 31.1367 27.0826 31.1836C25.6044 31.3351 24.122 31.3883 22.6356 31.4047C22.5073 31.4247 22.3763 31.3928 22.2714 31.3161C22.1665 31.2393 22.0963 31.1239 22.0762 30.9953C21.3983 29.0754 20.357 27.2497 18.2784 24.9081C18.2294 24.7812 18.0334 24.7321 17.9762 24.6257Z" fill="#F77833"/>
<path d="M120.638 25.4465C120.554 27.0404 120.554 28.6376 120.638 30.2315C120.667 30.7804 120.638 30.8515 120.079 30.9322C119.774 30.9773 119.466 31 119.158 31C117.809 31 116.464 31 115.122 31C114.892 31 114.663 31 114.433 30.9806C114 30.9806 113.881 30.8773 113.764 30.4511C113.637 29.9077 113.566 29.3527 113.551 28.7947C113.379 26.0826 113.217 23.3715 113.066 20.6615C112.921 18.1269 112.743 15.5956 112.743 13.0545C112.743 12.6477 112.789 12.5831 113.205 12.5121C114.193 12.3803 115.189 12.3242 116.185 12.3442C117.413 12.3248 118.641 12.3442 119.865 12.3442C120.272 12.3442 120.305 12.37 120.292 12.7898C120.237 14.4042 120.292 16.0185 120.366 17.6329C120.402 18.5015 120.466 19.37 120.586 20.2514C120.909 19.4507 121.271 18.6371 121.601 17.846C122.295 16.1412 122.945 14.4203 123.484 12.6606C123.489 12.6115 123.504 12.5638 123.528 12.5206C123.551 12.4773 123.584 12.4394 123.623 12.4091C123.662 12.3789 123.707 12.3569 123.755 12.3447C123.803 12.3324 123.852 12.33 123.901 12.3378C125.714 12.3666 127.523 12.5252 129.314 12.8124C129.992 12.9351 130.018 13.0029 129.805 13.6519C128.92 16.3543 127.743 18.9147 125.982 21.1684C125.84 21.3068 125.751 21.4917 125.734 21.6896C125.716 21.8875 125.77 22.0852 125.885 22.2468C127.869 24.8298 129.44 26.7122 130.309 29.5309C130.432 29.9313 130.374 30.0572 129.986 30.2089C129.294 30.444 128.573 30.582 127.844 30.619C126.674 30.7384 125.501 30.7804 124.325 30.7933C124.223 30.8091 124.119 30.784 124.036 30.7234C123.953 30.6629 123.898 30.5719 123.882 30.4705C123.345 28.9562 122.521 27.5161 120.877 25.6693C120.838 25.5692 120.683 25.5305 120.638 25.4465Z" fill="#F77833"/>
<path d="M85.5455 12.3735C88.1328 12.3495 90.7174 12.4049 93.2992 12.5399C94.4927 12.6037 94.54 12.6314 94.5762 13.835C94.6457 16.0148 94.6346 18.1946 94.5205 20.3744C94.4955 20.8292 94.3564 20.9651 93.8973 20.9679C93.0404 20.9679 92.1808 20.9679 91.3239 20.9679C91.0652 20.9679 90.9984 21.04 90.9817 21.2979C90.8092 24.3485 90.5282 27.3714 90.1805 30.3998C90.1656 30.5609 90.0965 30.7121 89.9843 30.829C89.8721 30.9458 89.7236 31.0214 89.5628 31.0432C89.1745 31.1336 88.7763 31.1746 88.3777 31.1653C87.2648 31.1653 86.152 31.1653 85.0391 31.0627C84.5495 31.0211 84.3993 30.899 84.3659 30.4082C84.2657 28.8884 84.1823 27.3575 84.071 25.8489C83.9597 24.2792 83.8178 22.7123 83.7009 21.1343C83.6843 20.8736 83.5229 20.8736 83.3476 20.857C82.5408 20.857 81.7312 20.8376 80.9244 20.832C80.2233 20.832 80.1454 20.7488 80.1037 20.0527C79.9869 18.0116 79.998 15.9677 80.0564 13.9238C80.0564 13.6021 80.0926 13.2804 80.112 12.9587C80.1076 12.8847 80.1189 12.8106 80.1453 12.7412C80.1717 12.6719 80.2125 12.609 80.2651 12.5566C80.3177 12.5042 80.3808 12.4635 80.4504 12.4371C80.5199 12.4108 80.5942 12.3995 80.6685 12.404C82.2904 12.3319 83.918 12.3957 85.5455 12.3735Z" fill="#F77833"/>
</svg>
