<svg width="44" height="27" viewBox="0 0 44 27" fill="none" xmlns="http://www.w3.org/2000/svg">
<path d="M27.5752 2.82361H16.0159V23.596H27.5752V2.82361Z" fill="#FF5F00"/>
<path d="M16.7499 13.2106C16.7481 11.2101 17.2014 9.23536 18.0756 7.43594C18.9498 5.63651 20.2219 4.05954 21.7956 2.82443C19.8468 1.2926 17.5063 0.339981 15.0416 0.0754483C12.577 -0.189084 10.0876 0.245148 7.8581 1.32851C5.62858 2.41187 3.74883 4.10065 2.43372 6.20183C1.11862 8.30301 0.421204 10.7318 0.421204 13.2106C0.421204 15.6894 1.11862 18.1182 2.43372 20.2194C3.74883 22.3206 5.62858 24.0093 7.8581 25.0927C10.0876 26.1761 12.577 26.6103 15.0416 26.3458C17.5063 26.0812 19.8468 25.1286 21.7956 23.5968C20.2219 22.3617 18.9498 20.7847 18.0756 18.9853C17.2014 17.1859 16.7481 15.2111 16.7499 13.2106V13.2106Z" fill="#EB001B"/>
<path d="M43.1693 13.2106C43.1694 15.6894 42.472 18.1182 41.157 20.2193C39.842 22.3205 37.9623 24.0093 35.7328 25.0927C33.5033 26.176 31.014 26.6103 28.5494 26.3458C26.0848 26.0812 23.7443 25.1286 21.7955 23.5968C23.3679 22.3604 24.639 20.7832 25.513 18.9841C26.3871 17.1849 26.8412 15.2108 26.8412 13.2106C26.8412 11.2104 26.3871 9.23629 25.513 7.43715C24.639 5.63801 23.3679 4.06079 21.7955 2.82443C23.7443 1.2926 26.0848 0.339975 28.5494 0.075446C31.014 -0.189083 33.5033 0.245157 35.7328 1.32853C37.9623 2.41191 39.842 4.1007 41.157 6.20187C42.472 8.30305 43.1694 10.7318 43.1693 13.2106V13.2106Z" fill="#F79E1B"/>
<path d="M41.9094 21.3961V20.9708H42.0809V20.8842H41.6441V20.9708H41.8157V21.3961H41.9094ZM42.7573 21.3961V20.8833H42.6234L42.4694 21.236L42.3154 20.8833H42.1815V21.3961H42.276V21.0093L42.4204 21.3427H42.5184L42.6628 21.0084V21.3961H42.7573Z" fill="#F79E1B"/>
</svg>
