<svg width="49" height="15" viewBox="0 0 49 15" fill="none" xmlns="http://www.w3.org/2000/svg">
<path d="M43.8066 0.165405H34.4429C34.9884 3.25635 37.9884 6.16548 41.2612 6.16548H48.7158C48.8067 5.89275 48.8067 5.43819 48.8067 5.16546C48.8067 2.43816 46.5339 0.165405 43.8066 0.165405Z" fill="url(#paint0_linear_473_501)"/>
<path d="M35.26 6.70959V14.2551H39.8055V10.2551H43.8055C45.9873 10.2551 47.8965 8.70962 48.5328 6.70959H35.26Z" fill="#4FAD50"/>
<path d="M19.2593 0.165405V14.1656H23.2594C23.2594 14.1656 24.2594 14.1656 24.8048 13.1656C27.5321 7.80186 28.3503 6.16548 28.3503 6.16548H28.8958V14.1656H33.4413V0.165405H29.4412C29.4412 0.165405 28.4412 0.256321 27.8958 1.16542C25.623 5.80184 24.3503 8.1655 24.3503 8.1655H23.8048V0.165405H19.2593Z" fill="#4FAD50"/>
<path d="M0.169281 14.2559V0.255737H4.71479C4.71479 0.255737 5.98754 0.255734 6.71482 2.25576C8.53302 7.52854 8.71485 8.25583 8.71485 8.25583C8.71485 8.25583 9.07848 6.98308 10.7149 2.25576C11.4421 0.255734 12.7149 0.255737 12.7149 0.255737H17.2604V14.2559H12.7149V6.71036H12.1694L9.62395 14.2559H7.62392L5.07845 6.71036H4.53298V14.2559H0.169281Z" fill="#4FAD50"/>
<defs>
<linearGradient id="paint0_linear_473_501" x1="34.4267" y1="3.20844" x2="48.7745" y2="3.20844" gradientUnits="userSpaceOnUse">
<stop stop-color="#27B1E6"/>
<stop offset="1" stop-color="#148ACA"/>
</linearGradient>
</defs>
</svg>
