<svg width="45" height="15" viewBox="0 0 45 15" fill="none" xmlns="http://www.w3.org/2000/svg">
<path d="M21.9552 0.457858L19.0156 13.998H15.46L18.3999 0.457858H21.9552ZM36.9134 9.20089L38.7847 4.11629L39.8616 9.20089H36.9134ZM40.8816 13.998H44.1693L41.2971 0.457858H38.2645C37.581 0.457858 37.0049 0.848277 36.7499 1.45035L31.415 13.998H35.149L35.8902 11.9759H40.4511L40.8816 13.998ZM31.6002 9.57761C31.6156 6.00414 26.5862 5.80619 26.6199 4.20948C26.6307 3.72435 27.1006 3.20755 28.1274 3.07538C28.6365 3.01082 30.0414 2.95843 31.6339 3.68141L32.2567 0.808992C31.4014 0.504148 30.3007 0.210571 28.9311 0.210571C25.4163 0.210571 22.9437 2.04999 22.924 4.68609C22.9014 6.63545 24.6902 7.72235 26.0351 8.37163C27.4217 9.03522 27.8863 9.46066 27.8795 10.0536C27.8699 10.962 26.7738 11.3643 25.7532 11.3796C23.9647 11.407 22.928 10.9033 22.1017 10.5238L21.4563 13.4922C22.2884 13.8674 23.8216 14.1938 25.4091 14.2106C29.1459 14.2106 31.5891 12.3928 31.6002 9.57761ZM16.8748 0.457858L11.114 13.998H7.35625L4.52115 3.19202C4.34929 2.52751 4.19937 2.28327 3.67668 2.00248C2.82169 1.54506 1.41033 1.11719 0.169273 0.851019L0.253351 0.457858H6.30313C7.07373 0.457858 7.76705 0.963089 7.94354 1.83773L9.44115 9.67354L13.1396 0.457858H16.8748Z" fill="#1434CB"/>
</svg>
